# xmcd
#
# Track frame offsets: 
#        150
#        9962
#        24711
#        40171
#        56212
#        71838
#        86485
#        99574
#        115532
#        131380
#        149233
#        168356
#        178269
#        191828
#        205405
#        217398
#        226740
#        241633
#        251309
#        264582
#        280811
#        291230
#        304053
#        317958
#
# Disc length: 4436 seconds
#
# Revision: 0
# Processed by: cddbd v1.5.2PL0 Copyright (c) Steve Scherf et al.
# Submitted via: ExactAudioCopy v1.0b3
#
DISCID=6a115218
DTITLE=Ray Charles - 17 Original Albums [CD8]
DYEAR=2015
DGENRE=Blues
TTITLE0=Bye Bye Love
TTITLE1=You Don't Know Me
TTITLE2=Half As Much
TTITLE3=I Love You So Much It Hurts
TTITLE4=Just A Little Lovin'
TTITLE5=Born To Lose
TTITLE6=Worried Mind
TTITLE7=It Makes No Difference
TTITLE8=You Win Again
TTITLE9=Careless Love
TTITLE10=I Can't Stop Loving You
TTITLE11=Hey Good Lookin'
TTITLE12=You Are My Sunshine
TTITLE13=No Letter Today
TTITLE14=Someday (You'll Want Me To Want You)
TTITLE15=Don't Tell Me Your Troubles
TTITLE16=Midnight
TTITLE17=Oh, Lonesome Me
TTITLE18=Take These Chains From My Heart
TTITLE19=Your Cheating Heart
TTITLE20=I'll Never Stand In Your Way
TTITLE21=Making Believe
TTITLE22=Teardrops In My Heart
TTITLE23=Hang Your Head In Shame
EXTD=
EXTT0=
EXTT1=
EXTT2=
EXTT3=
EXTT4=
EXTT5=
EXTT6=
EXTT7=
EXTT8=
EXTT9=
EXTT10=
EXTT11=
EXTT12=
EXTT13=
EXTT14=
EXTT15=
EXTT16=
EXTT17=
EXTT18=
EXTT19=
EXTT20=
EXTT21=
EXTT22=
EXTT23=
PLAYORDER=
